<svg xmlns="http://www.w3.org/2000/svg" viewBox="0 0 64 64">
  <defs>
    <linearGradient id="grad" x1="0%" y1="0%" x2="100%" y2="100%">
      <stop offset="0%" style="stop-color:#4a9eff"/>
      <stop offset="100%" style="stop-color:#7c3aed"/>
    </linearGradient>
  </defs>
  <rect width="64" height="64" rx="12" fill="url(#grad)"/>
  <g fill="white">
    <!-- Book -->
    <path d="M16 14c0-2 1.5-3 3-3h12c1.5 0 3 1 3 3v32c0 2-1.5 3-3 3H19c-1.5 0-3-1-3-3V14z" opacity="0.9"/>
    <path d="M20 16h8v2h-8zm0 5h10v1.5h-10zm0 4h10v1.5h-10zm0 4h8v1.5h-8z" fill="#4a9eff"/>
    <!-- Sound waves -->
    <path d="M40 26a8 8 0 010 12" stroke="white" stroke-width="2.5" fill="none" stroke-linecap="round"/>
    <path d="M45 22a14 14 0 010 20" stroke="white" stroke-width="2.5" fill="none" stroke-linecap="round"/>
    <path d="M50 18a20 20 0 010 28" stroke="white" stroke-width="2.5" fill="none" stroke-linecap="round"/>
  </g>
</svg>
